<svg version="1.1" xmlns="http://www.w3.org/2000/svg" xmlns:xlink="http://www.w3.org/1999/xlink" width="91.68824" height="88.88576" viewBox="0,0,91.68824,88.88576"><g transform="translate(-194.15588,-135.55712)"><g data-paper-data="{&quot;isPaintingLayer&quot;:true}" fill-rule="nonzero" stroke-linejoin="miter" stroke-miterlimit="10" stroke-dasharray="" stroke-dashoffset="0" style="mix-blend-mode: normal"><path d="M219.65812,224.44288l-2.92523,-35.41492l-22.577,-25.97725l39.33328,-0.7451l26.85274,-26.74849l4.54597,35.82453l20.95625,25.56763l-38.79133,1.06395z" fill="#ff3737" stroke="none" stroke-width="NaN" stroke-linecap="butt"/><path d="M212.68204,163.7441c0,0 3.49039,11.9939 4.4659,15.34597c0.47538,1.63354 -1.74043,6.67882 -1.74043,6.67882" fill="none" stroke="#ce2d2d" stroke-width="3" stroke-linecap="round"/><path d="M263.00178,176.83389l5.52647,18.99038" fill="none" stroke="#ce2d2d" stroke-width="3" stroke-linecap="round"/><path d="M219.54953,205.24234c0,0 20.11534,-8.24788 20.52129,-8.03081c0.80951,0.43286 3.6356,1.94403 3.6356,1.94403" fill="none" stroke="#ce2d2d" stroke-width="3" stroke-linecap="round"/><path d="M207.30175,210.32993l9.93171,-30.86685l-9.93171,-29.79301l33.40559,13.14042l31.99094,-13.14042l-8.70936,31.77935l8.70936,28.88051c0,0 -26.73357,-10.25502 -30.98246,-11.8849c-1.10039,-0.42211 -2.07805,-0.79714 -2.07805,-0.79714z" fill="#ffef66" stroke="none" stroke-width="NaN" stroke-linecap="butt"/></g></g></svg>