<svg version="1.1" xmlns="http://www.w3.org/2000/svg" xmlns:xlink="http://www.w3.org/1999/xlink" width="26.9463" height="36.69154" viewBox="0,0,26.9463,36.69154"><g transform="translate(-226.52671,-154.20396)"><g data-paper-data="{&quot;isPaintingLayer&quot;:true}" fill-rule="nonzero" stroke-linejoin="miter" stroke-miterlimit="10" stroke-dasharray="" stroke-dashoffset="0" style="mix-blend-mode: normal"><path d="M228.41336,189.39656v-18.27193h23.27496v18.27193z" fill="#6b6b6b" stroke="none" stroke-width="0" stroke-linecap="butt"/><path d="M252.10001,170.86393l-3.68685,18.13668" fill="none" stroke="#808080" stroke-width="2" stroke-linecap="round"/><path d="M228.22765,169.3417v-1.98122c0,0 2.92134,-8.87878 3.37541,-8.87878c0.06508,0 1.64638,-2.07552 3.9888,-3.18128c2.34481,-1.10689 5.45078,-1.24383 5.62087,-0.88378c0.0105,0.02223 6.23202,0.90479 5.40804,1.69089c-0.04975,0.04746 1.8094,1.32705 2.91938,3.51304c0.22404,0.44123 0.57627,2.17741 0.74616,2.53892c0.19827,0.42191 0.98525,3.1727 1.10116,5.21599c0.08234,1.4516 -0.90504,2.65722 -0.93828,2.68604c-0.06682,0.05793 -0.7637,1.13324 -1.00745,-0.51398c-0.27795,-1.8784 -0.63511,-6.09454 -0.99719,-6.4729c-1.66232,-1.73702 -3.75624,-4.41333 -4.08079,-4.37886c-2.47554,0.26287 -6.59384,-0.97833 -6.76796,-0.85653c-1.95666,1.36872 -4.07029,2.48137 -4.11431,2.89033c-0.26182,2.43265 -2.6856,6.63091 -2.6856,6.63091v1.98122z" fill="#6b6b6b" stroke="#6b6b6b" stroke-width="0" stroke-linecap="butt"/><path d="M228.26833,177.10127l1.56557,-6.78441" fill="none" stroke="#808080" stroke-width="2" stroke-linecap="round"/><path d="M237.27224,156.29459l-1.65326,2.05912" fill="none" stroke="#808080" stroke-width="2" stroke-linecap="round"/><path d="M248.87864,168.99965l2.32024,-0.07251" fill="none" stroke="#444444" stroke-width="2" stroke-linecap="round"/><path d="M228.34085,189.02202h22.62239" fill="none" stroke="#444444" stroke-width="2" stroke-linecap="round"/><path d="M227.63065,189.8955c0,0 0.65257,-6.58876 0.65257,-9.79282c0,-3.38317 -0.65257,-9.99815 -0.65257,-9.99815h24.73871c0,0 -0.58006,7.32416 -0.58006,10.57821c0,3.34066 0.58006,9.21276 0.58006,9.21276z" fill="none" stroke="#000000" stroke-width="2" stroke-linecap="butt"/><path d="M228.09613,168.91341c0,0 -0.32102,-13.18328 11.45494,-13.71045c13.96159,-0.62501 12.3722,14.02205 12.3722,14.02205" fill="none" stroke="#000000" stroke-width="2" stroke-linecap="round"/><path d="M243.19685,185.57845l-5.92002,0.14676l0.73379,-3.75259c-0.38897,-0.5863 -1.71623,-1.21631 -1.71623,-1.97261c0,-2.04655 1.65906,-3.70561 3.70561,-3.70561c2.04655,0 3.70561,1.65906 3.70561,3.70561c0,0.59206 -1.31291,1.73872 -1.55983,2.23514z" fill="#404040" stroke="#000000" stroke-width="2" stroke-linecap="butt"/><path d="M231.29771,169.27278c0,0 -0.28365,-10.66032 8.20444,-11.05817c10.0635,-0.47168 9.06289,10.93484 9.06289,10.93484" fill="none" stroke="#000000" stroke-width="2" stroke-linecap="round"/></g></g></svg>