<svg version="1.1" xmlns="http://www.w3.org/2000/svg" xmlns:xlink="http://www.w3.org/1999/xlink" width="91.68825" height="88.88576" viewBox="0,0,91.68825,88.88576"><g transform="translate(-194.15587,-135.55712)"><g data-paper-data="{&quot;isPaintingLayer&quot;:true}" fill-rule="nonzero" stroke-linejoin="miter" stroke-miterlimit="10" stroke-dasharray="" stroke-dashoffset="0" style="mix-blend-mode: normal"><path d="M219.65811,224.44288l-2.92523,-35.41492l-22.577,-25.97725l39.33328,-0.7451l26.85274,-26.74849l4.54597,35.82453l20.95625,25.56763l-38.79133,1.06395z" fill="#ff3737" stroke="none" stroke-width="none" stroke-linecap="butt"/><path d="M239.15652,196.72263l4.5499,2.43292" fill="none" stroke="#ce2d2d" stroke-width="3" stroke-linecap="round"/><path d="M207.30174,210.32993l9.93171,-30.86685l-9.93171,-29.79301l33.40559,13.14042l31.99094,-13.14042l-8.70936,31.77935l8.70936,28.88051l-33.06051,-12.68204z" fill="#ffef66" stroke="none" stroke-width="none" stroke-linecap="butt"/><path d="M220.92849,185.309l17.8669,11.0216" fill="none" stroke="#dacd57" stroke-width="3" stroke-linecap="round"/><path d="M240.58637,196.25624l3.65589,1.71224" fill="none" stroke="#dacd57" stroke-width="3" stroke-linecap="round"/><g><path d="M250.28804,185.74985l-22.58384,-13.89783c0,0 0.8535,-3.42973 1.82102,-5.52542c1.05186,-2.27839 6.18927,-6.25429 6.18927,-6.25429l30.09574,18.95838c0,0 -0.67128,5.44382 -1.95769,7.56767c-0.64563,1.06592 -2.52306,4.65276 -5.89193,4.14099c-3.06261,-0.46525 -7.67256,-4.9895 -7.67256,-4.9895z" fill="#a64242" stroke="none" stroke-width="0" stroke-linecap="butt"/><g fill="none" stroke="#000000" stroke-width="2"><path d="M264.45877,177.68057c0.2827,0.02251 0.54346,0.10182 0.7756,0.24243c1.6388,0.99262 1.23091,4.6641 -0.91107,8.20048c-2.14198,3.53637 -5.20691,5.59849 -6.84571,4.60587c-0.22096,-0.13384 -0.40472,-0.31637 -0.55203,-0.54072" stroke-linecap="butt"/><path d="M265.15609,177.91514l-29.04474,-17.59234" stroke-linecap="round"/><path d="M257.43437,190.66362l-29.04475,-17.59234" stroke-linecap="round"/><path d="M236.50908,160.52416c1.6388,0.99262 1.23091,4.6641 -0.91107,8.20047c-2.14198,3.53637 -5.20691,5.59849 -6.84571,4.60587c-1.6388,-0.99262 -1.23091,-4.6641 0.91106,-8.20048c2.14198,-3.53637 5.20691,-5.59849 6.84571,-4.60587z" stroke-linecap="butt"/></g><path d="M232.32393,166.69915c0,0 -1.20023,-3.35052 -2.78639,-4.27446c-1.75118,-1.02007 -3.20434,1.43823 -3.0473,-0.58229c0.10689,-1.37532 -5.09206,3.28698 -5.09206,3.28698" fill="none" stroke="#000000" stroke-width="2" stroke-linecap="round"/></g><path d="M241.92396,196.24991l-22.58385,-13.89783c0,0 0.85351,-3.42973 1.82102,-5.52542c1.05186,-2.27839 6.18927,-6.25429 6.18927,-6.25429l30.09574,18.95838c0,0 -0.67128,5.44382 -1.95769,7.56767c-0.64563,1.06592 -2.52307,4.65276 -5.89193,4.14099c-3.06261,-0.46525 -7.67255,-4.9895 -7.67255,-4.9895z" fill="#b04747" stroke="none" stroke-width="0" stroke-linecap="butt"/><path d="M226.63813,182.05886l26.32128,16.35181" fill="none" stroke="#9d3f3f" stroke-width="3" stroke-linecap="round"/><g fill="none" stroke="#000000" stroke-width="2"><path d="M256.09468,188.18063c0.2827,0.02251 0.54346,0.10182 0.7756,0.24243c1.6388,0.99262 1.23091,4.6641 -0.91106,8.20048c-2.14198,3.53637 -5.20691,5.59849 -6.84571,4.60587c-0.22097,-0.13384 -0.40472,-0.31637 -0.55203,-0.54072" stroke-linecap="butt"/><path d="M256.792,188.4152l-29.04474,-17.59234" stroke-linecap="round"/><path d="M249.07028,201.16367l-29.04475,-17.59234" stroke-linecap="round"/><path d="M228.145,171.02421c1.6388,0.99262 1.23091,4.6641 -0.91107,8.20047c-2.14198,3.53637 -5.20691,5.59849 -6.84572,4.60587c-1.6388,-0.99262 -1.23091,-4.6641 0.91107,-8.20048c2.14198,-3.53637 5.20691,-5.59849 6.84572,-4.60587z" stroke-linecap="butt"/></g><path d="M223.95984,177.19921c0,0 0.03321,-5.66801 -1.55295,-6.59196c-0.91121,-0.53079 -0.91943,-2.9705 -0.76902,-4.90589c0.10689,-1.37532 -8.14374,1.43859 -8.14374,1.43859" fill="none" stroke="#000000" stroke-width="2" stroke-linecap="round"/><path d="M248.79101,194.5636l-22.58385,-13.89782c0,0 0.85351,-3.42973 1.82102,-5.52542c1.05186,-2.27839 6.18927,-6.25429 6.18927,-6.25429l30.09574,18.95839c0,0 -0.67129,5.44381 -1.9577,7.56766c-0.64563,1.06592 -2.52306,4.65276 -5.89192,4.14098c-3.06261,-0.46525 -7.67256,-4.9895 -7.67256,-4.9895z" fill="#c75050" stroke="none" stroke-width="0" stroke-linecap="butt"/><path d="M237.25996,172.27128c1.12694,0.6642 26.19664,15.85907 26.19664,15.85907" fill="none" stroke="#d35151" stroke-width="3" stroke-linecap="round"/><g fill="none" stroke="#000000" stroke-width="2"><path d="M262.96173,186.49433c0.2827,0.02251 0.54346,0.10182 0.7756,0.24243c1.6388,0.99262 1.23091,4.6641 -0.91106,8.20048c-2.14198,3.53637 -5.20691,5.59849 -6.84572,4.60587c-0.22097,-0.13384 -0.40472,-0.31637 -0.55203,-0.54072" stroke-linecap="butt"/><path d="M263.65905,186.7289l-29.04473,-17.59234" stroke-linecap="round"/><path d="M255.93733,199.47737l-29.04475,-17.59235" stroke-linecap="round"/><path d="M235.01205,169.33791c1.6388,0.99262 1.23091,4.6641 -0.91106,8.20048c-2.14198,3.53637 -5.20691,5.59849 -6.84572,4.60587c-1.6388,-0.99262 -1.23091,-4.6641 0.91107,-8.20047c2.14198,-3.53637 5.20691,-5.59849 6.84571,-4.60587z" stroke-linecap="butt"/></g><path d="M230.82689,175.51291c0,0 -4.56693,-2.96327 -4.21164,-7.53477c0.10689,-1.37532 -4.90493,-2.64373 -4.90493,-2.64373" fill="none" stroke="#000000" stroke-width="2" stroke-linecap="round"/><path d="M247.47105,182.63164c0,2.18551 -2.04343,3.95721 -4.56414,3.95721c-2.52071,0 -4.56414,-1.7717 -4.56414,-3.95721c0,-2.18551 2.04343,-3.95721 4.56414,-3.95721c2.52071,0 4.56414,1.7717 4.56414,3.95721z" fill="#ffffff" stroke="#000000" stroke-width="2" stroke-linecap="butt"/><path d="M242.73163,180.4224v2.85644l1.5348,0.6395" fill="none" stroke="#000000" stroke-width="1" stroke-linecap="round"/></g></g></svg>